<svg id="Layer_1" data-name="Layer 1" xmlns="http://www.w3.org/2000/svg" viewBox="0 0 1000 1000"><defs><style>.cls-1{fill:#fff;}</style></defs><circle class="cls-1" cx="500" cy="500" r="500"/><path d="M559,731H517c-.18,1.8-.39,2.9-.39,4,0,24.11-.06,48.23.31,72.34a13,13,0,0,0,4.1,8.41A33.67,33.67,0,0,1,527.13,859c-8.49,13.25-26.32,18.07-41.49,11.22C472.54,864.28,464,846,468.9,831.8c2.08-6,7.27-10.82,10.92-16.26,1.39-2.07,3.41-4.37,3.45-6.59.48-24.57.59-49.14.91-73.71,0-3.32-.73-5.19-4.51-5.16-12.14.1-24.29,0-37.15,0-.18,3.5-.41,5.92-.41,8.33q0,86.13,0,172.25c0,11.41-1.44,13-13.05,13.16-18.25.3-19-.54-19-18.63q0-83.72,0-167.43V731H369.51c0,3.94,0,7.34,0,10.73.14,28.71.17,57.42.6,86.12a14.26,14.26,0,0,0,3.85,8.76c13.77,14.29,13.44,35-1.11,47.64a31.36,31.36,0,0,1-45.23-4.43c-12.3-16-9.05-35.76,7.6-47.23,1.43-1,2.93-3.15,2.93-4.77.18-32.13.13-64.27.13-97.22h-70.2V599.47c-1.72-.18-2.8-.4-3.88-.4-29.86,0-59.72.16-89.57.07-5.11,0-8,1.35-10.39,6.48-6.95,15.25-23,21.82-38.49,16.62-14.33-4.81-25-21.83-21.43-36.73,6.17-26.08,33-33,50.52-21a22.28,22.28,0,0,0,11.8,3.64c31,.28,62,.13,93,.12h8V509.89a27.61,27.61,0,0,0-3.71-.47c-29.17,0-58.34.13-87.51,0-4.67,0-7.81,1.07-10.91,5.14a30.43,30.43,0,0,1-44.46,4.55c-13.28-11.76-14.7-34.12-2.94-46.4,12-12.56,33.67-12.78,45.64,0a14.47,14.47,0,0,0,11.85,5.07c29.16-.14,58.33,0,87.5,0,1.34,0,2.69-.22,4.54-.38V420c-1.8-.13-3.57-.37-5.33-.37-31.47.06-62.93,0-94.39.39a24.6,24.6,0,0,0-11.9,3.71c-10.87,6.69-22,7.95-33.38,2.31s-17.21-15.68-18.27-28.12c-1.15-13.36,9.07-27.21,22.31-31.25,14.23-4.34,29.78,1.36,36.48,14.73,2.94,5.86,6.44,7,12.18,7,30.08,0,60.17.23,90.25.38a16.18,16.18,0,0,0,2.25-.51V260.78h69.86c.21-2.7.51-4.68.51-6.67.07-29.86,0-59.71.21-89.57,0-3.82-1-6.06-4.37-8.33C319,146,315.92,123.76,327.37,110.1c11.91-14.21,34.2-15.22,47.14-2.14,13.4,13.55,12.82,35.22-1,47.24-1.95,1.7-3.89,4.72-3.9,7.14-.11,31.69.12,63.38.29,95.08a21.6,21.6,0,0,0,.44,3h39.57v-8l.24-168.11c0-11.07,2.27-13.31,13.26-13.29,18.89,0,18.82,0,18.79,18.91q-.12,80.27-.15,160.54v9.53h42c0-4,0-7.84,0-11.67-.19-21.59-.25-43.18-.74-64.76a13.65,13.65,0,0,0-3.62-8.63c-12.2-11.92-14.84-25.35-7.33-40.47,5.92-11.92,19.24-18.13,33.57-15.65,14.55,2.51,24.7,13.62,26.34,29.49,1.15,11.16-3.57,20-11.89,27.23-1.81,1.58-3.67,4.31-3.69,6.53-.18,25,0,50.07.07,75.1a31.51,31.51,0,0,0,.51,3.41c12.65,0,25.21.17,37.74-.27,1.23,0,3.3-3.8,3.33-5.85.3-20.44.25-40.88.29-61.32q.11-55.81.21-111.61c0-8.34,2.22-10.39,10.7-10.61,20.92-.55,21.51.11,21.51,21.16q0,79.58.15,159.15c0,2.92.24,5.83.38,9.07h39.71c0-14.27,0-28.42,0-42.58,0-18.14,0-36.28-.27-54.42a12.49,12.49,0,0,0-3.26-7.37c-6.87-7.59-11.47-15.89-11.21-26.5.38-15.22,8.64-26,23-29.57,15.23-3.78,29.85,2.73,37.23,16.59,6.46,12.12,4.44,28.66-6.58,36.95-7.27,5.47-8,11.47-8,19.27.26,28.93.1,57.85.1,87.52h70.34v128c3,.21,5.42.54,7.85.53,29.39-.12,58.78-.31,88.18-.39,3.92,0,6.6-.57,8.48-4.92,6.3-14.55,20.56-21,35.68-16.72s25.52,19.26,23.7,34.44c-1.85,15.37-14.34,27.31-29.19,28.24a31.92,31.92,0,0,1-21.87-6.58,13.52,13.52,0,0,0-7.35-2.9c-34.67-.19-69.34-.13-104.65-.13v57.52a55.66,55.66,0,0,0,6,.61c29.62-.11,59.25-.19,88.87-.53,2.6,0,6-1,7.62-2.87,10.75-12.14,29-15,41.65-6.14,14.59,10.24,18.51,27.12,10.05,42.43-11.89,21.51-43,20.45-52.24,3.39-2.1-3.86-5.11-5-9.54-4.92-29.63.3-59.26.28-88.88.38-1.11,0-2.21.25-3.74.43v58.28h6.45c31-.07,62-.23,93-.1A25.43,25.43,0,0,0,847.46,564c12.13-7.79,26.34-6.58,37.1,2.39,11.22,9.37,15.38,23.63,10.65,36.53a31.85,31.85,0,0,1-29.54,20.91c-13.63.19-24.19-6.78-29.33-19.76-1.17-2.94-1.78-5.16-5.83-5.13-31,.25-62,.24-93,.34a43.48,43.48,0,0,0-4.53.56V730.29H663.48a43.61,43.61,0,0,0-.78,5.44c-.08,30.09-.22,60.18,0,90.26A12.2,12.2,0,0,0,667,834.2c13.85,11,17.29,29.57,7.66,43.6-9.94,14.47-28.87,18.29-43.83,8.85-13.44-8.49-18.55-29.23-10.54-43.36,1.22-2.15,2.78-4.54,4.82-5.72,6.29-3.64,7-9,6.93-15.63-.36-27.79-.23-55.58-.28-83.37v-7.46H591.1c0,4.37,0,8.23,0,12.1q0,84.06-.12,168.11c0,10.1-2.61,12.67-12.54,12.72-18.94.09-19.61-.61-19.59-19.68q.09-83.37.16-166.74ZM697.1,695.48v-398H594.44v35.45H407V297.57H304.69V695.48ZM148.41,591.71c.23-7.29-4.6-12.94-11.08-13-8.41,0-13.06,4.16-13.41,12.1-.31,7,4.56,12.61,11.23,13C141.36,604.15,148.21,597.89,148.41,591.71ZM864.83,603.6c6.33,0,12.19-5.36,12.43-11.47.28-7.14-5.29-13.1-12.14-13-7.15.12-12.36,5.15-12.39,12A12.6,12.6,0,0,0,864.83,603.6Zm-376-454.79c-.08,7.9,4.63,13.24,11.64,13.18,6.39-.05,12.36-5.9,12.53-12.28a11.38,11.38,0,0,0-11.31-11.37C493,138.17,488.91,141.49,488.84,148.81Zm172.08-18.5c-.17-6.35-6.33-12.39-12.43-12.19-5.69.18-12,6.7-11.84,12.18.23,6.8,5.74,12.39,12.11,12.27S661.09,136.56,660.92,130.31ZM136.86,385.6a11.73,11.73,0,0,0-11.81,11.79c-.14,7.16,4.88,12.32,11.9,12.27,6.28-.05,12.39-6.28,12.24-12.5S143.31,385.59,136.86,385.6ZM352.42,118.18c-6.08,0-11.23,5.49-11.38,12.15-.16,7,4.48,12.18,10.92,12.26a12.51,12.51,0,0,0,12.69-12.4A12,12,0,0,0,352.42,118.18ZM864.9,385.74a12.39,12.39,0,0,0-11.81,12.63,11.72,11.72,0,0,0,12.09,11.38c6.36-.25,12.2-6.4,12-12.66S871.28,385.6,864.9,385.74Zm-376,455.39c0,7,4.7,12.1,11.07,12.07,6,0,12.16-6.29,12.19-12.38,0-6.78-4.79-11.75-11.42-11.76C493.66,829.06,488.88,833.92,488.86,841.13ZM872,494.91c.13-7.11-4.19-11.73-11.08-11.86s-12.29,4.9-12.28,11.74,4.71,11.94,11.24,12C866.83,507,871.89,502,872,494.91ZM648.77,848.27c-6.31,0-12.28,5.78-12.08,11.61.22,6.48,5.75,12.33,11.64,12.33,6.09,0,12.59-6.4,12.56-12.38C660.86,853.68,655.16,848.23,648.77,848.27ZM130.24,494.67c.07,7.07,4.81,12,11.37,11.83s12.38-6.23,12.19-12.42a11.78,11.78,0,0,0-23.56.59ZM352.5,848.21a11.72,11.72,0,0,0-11.9,12.15c.11,6.15,5.41,11.48,11.32,11.39,6.6-.09,12.42-5.75,12.46-12.13S359.39,848.27,352.5,848.21Z" transform="translate(0)"/><rect x="343.29" y="587.59" width="102.95" height="35.27" transform="translate(543.59 -101.88) rotate(45)"/><rect x="347.72" y="555.55" width="158.18" height="35.27" transform="translate(530.31 -133.92) rotate(45)"/><rect x="494.09" y="409.18" width="158.18" height="35.27" transform="translate(469.69 -280.29) rotate(45)"/><rect x="553.76" y="377.13" width="102.95" height="35.27" transform="translate(456.41 -312.34) rotate(45)"/><rect x="421.3" y="481.97" width="158.18" height="35.27" transform="translate(-206.71 500.16) rotate(-45)"/></svg>